<?xml version="1.0" encoding="UTF-8"?>
<svg width="30px" height="30px" viewBox="0 0 30 30" version="1.1" xmlns="http://www.w3.org/2000/svg" xmlns:xlink="http://www.w3.org/1999/xlink">
    <title>370C2CE8-89AB-4D9F-84B8-A9B2E297AA08</title>
    <g id="Page-1" stroke="none" stroke-width="1" fill="none" fill-rule="evenodd">
        <g id="versions" transform="translate(-50, -50)" fill="#FFFFFF">
            <g id="bt-menu" transform="translate(50, 50)">
                <rect id="bg" opacity="0.149809338" x="0" y="0" width="30" height="30" rx="10"></rect>
                <path d="M12.5153691,7.4 L8.04837595,7.4 C7.47100948,7.4 7,7.87100948 7,8.44837595 L7,12.9153691 C7,13.4927356 7.47100948,13.9637451 8.04837595,13.9637451 L12.5153691,13.9637451 C13.0927356,13.9637451 13.5637451,13.4927356 13.5637451,12.9153691 L13.5637451,8.44837595 C13.5789389,7.87100948 13.1079294,7.4 12.5153691,7.4 Z M12.9104093,12.930563 C12.9104093,13.1432769 12.7432769,13.3256032 12.5153691,13.3256032 L8.04837595,13.3256032 C7.83566199,13.3256032 7.65333573,13.1584708 7.65333573,12.930563 L7.65333573,8.44837595 C7.65333573,8.23566199 7.82046813,8.05333573 8.04837595,8.05333573 L12.5153691,8.05333573 C12.7280831,8.05333573 12.9104093,8.22046813 12.9104093,8.44837595 L12.9104093,12.930563 Z M21.7465899,7.4 L17.2644029,7.4 C16.6870364,7.4 16.216027,7.87100948 16.216027,8.44837594 L16.216027,12.9153691 C16.216027,13.4927355 16.6870364,13.963745 17.2644029,13.963745 L21.731396,13.963745 C22.3087625,13.963745 22.779772,13.4927355 22.779772,12.9153691 L22.779772,8.44837594 C22.7949658,7.87100948 22.3239563,7.4 21.7465899,7.4 Z M22.1264362,12.9305629 C22.1264362,13.1432769 21.9593038,13.3256031 21.731396,13.3256031 L17.2644029,13.3256031 C17.0516889,13.3256031 16.8693627,13.1584707 16.8693627,12.9305629 L16.8693627,8.44837594 C16.8693627,8.23566198 17.0364951,8.05333573 17.2644029,8.05333573 L21.731396,8.05333573 C21.94411,8.05333573 22.1264362,8.22046812 22.1264362,8.44837594 L22.1264362,12.9305629 Z M12.5153691,16.4358974 L8.04837595,16.4358974 C7.47100948,16.4358974 7,16.9069069 7,17.4842734 L7,21.9512665 C7,22.528633 7.47100948,22.9996425 8.04837595,22.9996425 L12.5153691,22.9996425 C13.0927356,22.9996425 13.5637451,22.528633 13.5637451,21.9512665 L13.5637451,17.4994672 C13.5789389,16.9221008 13.1079294,16.4358974 12.5153691,16.4358974 Z M12.9104093,21.9664604 C12.9104093,22.1791744 12.7432769,22.3615006 12.5153691,22.3615006 L8.04837595,22.3615006 C7.83566199,22.3615006 7.65333573,22.1943682 7.65333573,21.9664604 L7.65333573,17.4994672 C7.65333573,17.2867533 7.82046813,17.104427 8.04837595,17.104427 L12.5153691,17.104427 C12.7280831,17.104427 12.9104093,17.2715594 12.9104093,17.4994672 L12.9104093,21.9664604 Z M21.7468912,16.4358974 L17.26446,16.4358974 C16.6870621,16.4358974 16.216027,16.9069326 16.216027,17.4843305 L16.216027,21.951567 C16.216027,22.5289649 16.6870621,23 17.26446,23 L21.7316965,23 C22.3090944,23 22.7801295,22.5289649 22.7801295,21.951567 L22.7801295,17.4995252 C22.7953242,16.9221273 22.3242891,16.4358974 21.7468912,16.4358974 Z M22.1267582,21.9667616 C22.1267582,22.1794872 21.9596167,22.3618234 21.7316965,22.3618234 L17.26446,22.3618234 C17.0517345,22.3618234 16.8693983,22.1946819 16.8693983,21.9667616 L16.8693983,17.4995252 C16.8693983,17.2867996 17.0365398,17.1044634 17.26446,17.1044634 L21.7316965,17.1044634 C21.944422,17.1044634 22.1267582,17.2716049 22.1267582,17.4995252 L22.1267582,21.9667616 Z" id="Combined-Shape" stroke="#FFFFFF" stroke-width="0.4" fill-rule="nonzero"></path>
            </g>
        </g>
    </g>
</svg>