<?xml version="1.0" encoding="UTF-8"?>
<svg width="30px" height="30px" viewBox="0 0 30 30" version="1.1" xmlns="http://www.w3.org/2000/svg" xmlns:xlink="http://www.w3.org/1999/xlink">
    <title>41B85EF1-DA10-4B98-9175-C91D3DDBA328</title>
    <g id="Page-1" stroke="none" stroke-width="1" fill="none" fill-rule="evenodd">
        <g id="4.0-program" transform="translate(-327, -311)">
            <g id="list" transform="translate(8, 284)">
                <g id="bt-open-module" transform="translate(319, 27)">
                    <rect id="bg" fill="#FFFFFF" x="0" y="0" width="30" height="30" rx="10"></rect>
                    <path d="M15,8 C14.5820415,8 14.2432416,8.33881883 14.2432416,8.75675655 L14.2432416,14.2432605 L8.75675655,14.2432605 C8.33881883,14.2432605 8,14.5820642 8,15.0000208 C8,15.4179775 8.33881883,15.7567774 8.75675655,15.7567774 L14.2432416,15.7567774 L14.2432416,21.2432434 C14.2432416,21.6611812 14.5820415,22 15,22 C15.4179548,22 15.7567547,21.6611812 15.7567547,21.2432434 L15.7567547,15.7567774 L21.2432397,15.7567774 C21.6611774,15.7567774 22,15.4179775 22,15.0000208 C22,14.5820642 21.6611774,14.2432605 21.2432397,14.2432605 L15.7567547,14.2432605 L15.7567547,8.75675655 C15.7567547,8.33881883 15.4179548,8 15,8 L15,8 Z" id="Path" fill="#000000"></path>
                </g>
            </g>
        </g>
    </g>
</svg>