<?xml version="1.0" encoding="UTF-8"?>
<svg width="28px" height="28px" viewBox="0 0 28 28" version="1.1" xmlns="http://www.w3.org/2000/svg" xmlns:xlink="http://www.w3.org/1999/xlink">
    <title>CCFACE6C-B6D3-4624-A1BE-8CAE779C072F</title>
    <g id="Page-1" stroke="none" stroke-width="1" fill="none" fill-rule="evenodd">
        <g id="versions" transform="translate(-246, -57)" fill="#FFFFFF">
            <g id="bt-tab-4" transform="translate(246, 57)">
                <path d="M19.7534418,9.53973014 C19.7513569,7.57896004 18.1417509,5.97247823 16.1851464,5.97808714 C14.2237515,5.9835172 12.6197691,7.5947895 12.628068,9.55118567 C12.6368482,11.5294515 14.2370815,13.1005253 16.2428406,13.1001088 C18.1527898,13.0999004 19.7555226,11.4742567 19.7534418,9.53973014 M13.1502642,13.5799913 C10.5150759,11.5094564 10.6354631,7.95407656 12.61602,5.97393621 C14.5813723,4.00900047 17.7932945,4.00900047 19.7642704,5.97206167 C21.7431611,7.9430376 21.8656311,11.5198705 19.2366912,13.5754091 C19.4939199,13.6789254 19.7421925,13.7768181 19.9890071,13.8786682 C20.1146013,13.9303222 20.2414453,13.9813514 20.3605828,14.0459189 C20.7123717,14.2364973 20.8500463,14.6409816 20.6913352,14.9992272 C20.5305412,15.3624717 20.12689,15.5284727 19.745525,15.3907981 C19.229193,15.2045936 18.7232752,14.9767327 18.1938215,14.8425989 C16.2147225,14.3420964 14.3037319,14.5651668 12.4845938,15.4897322 C10.9031059,16.2937021 9.71277222,17.5013232 8.89859649,19.0757295 C8.57367602,19.7039091 8.34435714,20.3693712 8.19980919,21.0623266 C8.10149992,21.5338779 8.37934858,21.9312806 8.8548572,22.0014718 C8.94004468,22.014177 9.02752327,22.0131356 9.11396045,22.0131356 C12.0715699,22.0137604 15.0291793,22.0133438 17.9865805,22.0137604 C18.4158504,22.0137604 18.6922411,22.1999648 18.7951326,22.5540448 C18.9238511,22.9976863 18.6178843,23.4500755 18.1575803,23.4948562 C18.1023855,23.5002716 18.0463575,23.4994385 17.9907462,23.4994385 C14.9960625,23.4996467 12.0013787,23.5008964 9.00669503,23.4988136 C7.89238443,23.4979805 6.99281294,22.8200214 6.76016155,21.7656961 C6.69017868,21.4488987 6.67664032,21.0923193 6.74412381,20.7767715 C7.18234988,18.7272731 8.18085549,16.9916563 9.73589156,15.5795019 C10.6873254,14.7155467 11.7710185,14.0775778 12.9807224,13.6495576 C13.0323764,13.631437 13.0821559,13.6081094 13.1502642,13.5799913" id="Fill-4"></path>
            </g>
        </g>
    </g>
</svg>