<?xml version="1.0" encoding="UTF-8"?>
<svg width="30px" height="30px" viewBox="0 0 30 30" version="1.1" xmlns="http://www.w3.org/2000/svg" xmlns:xlink="http://www.w3.org/1999/xlink">
    <title>EFB4FF53-180D-4868-91C8-E16D55B2B26B</title>
    <g id="Page-1" stroke="none" stroke-width="1" fill="none" fill-rule="evenodd">
        <g id="pwa-icons" transform="translate(-20.000000, -20.000000)" fill="#A82E62">
            <g id="ic-home" transform="translate(17.000000, 20.000000)">
                <g id="bt-search" transform="translate(3.000000, 0.000000)">
                    <path d="M22.935333,21.9488284 L24.7958031,23.8092985 C25.0655713,24.0790666 25.0655713,24.5255808 24.7958031,24.7953489 C24.6562679,24.9348842 24.4795226,25 24.3027779,25 C24.1260333,25 23.949288,24.9348842 23.8097527,24.7953489 L21.9492826,22.9348788 C21.6795144,22.6651106 21.6795144,22.2185965 21.9492826,21.9488284 C22.2190508,21.6790602 22.6655649,21.6790602 22.935333,21.9488284 Z M14.5349094,5 C19.7907376,5 24.0698188,9.27908121 24.0698188,14.5349094 C24.0698188,19.7907376 19.7907376,24.0698188 14.5349094,24.0698188 C9.27908121,24.0698188 5,19.7907376 5,14.5349094 C5,9.27908121 9.27908121,5 14.5349094,5 Z M14.5349094,6.3953526 C10.0418741,6.3953526 6.3953526,10.0511762 6.3953526,14.5349094 C6.3953526,19.0186426 10.0418741,22.6744662 14.5349094,22.6744662 C19.0279447,22.6744662 22.6744662,19.0186426 22.6744662,14.5349094 C22.6744662,10.0511762 19.0279447,6.3953526 14.5349094,6.3953526 Z" id="search"></path>
                </g>
            </g>
        </g>
    </g>
</svg>